<?xml version="1.0" encoding="UTF-8"?>
<!--Generator: Apple Native CoreSVG 123-->
<!DOCTYPE svg
PUBLIC "-//W3C//DTD SVG 1.1//EN"
       "http://www.w3.org/Graphics/SVG/1.1/DTD/svg11.dtd">
<svg version="1.1" xmlns="http://www.w3.org/2000/svg" xmlns:xlink="http://www.w3.org/1999/xlink" width="3300" height="2200">
 <!--glyph: "uni1002C1.medium", point size: 100.000000, font version: "Version 15.0d7e11", template writer version: "5"-->
 <g id="Notes">
  <rect height="2200" id="artboard" style="fill:white;opacity:1" width="3300" x="0" y="0"/>
  <line id="" style="fill:none;stroke:black;opacity:1;stroke-width:0.5;" x1="263" x2="3036" y1="292" y2="292"/>
  <text style="stroke:none;fill:black;font-family:-apple-system,&quot;SF Pro Display&quot;,&quot;SF Pro Text&quot;,Helvetica,sans-serif;font-weight:bold;" transform="matrix(1 0 0 1 263 322)">Weight/Scale Variations</text>
  <text style="stroke:none;fill:black;font-family:-apple-system,&quot;SF Pro Display&quot;,&quot;SF Pro Text&quot;,Helvetica,sans-serif;text-anchor:middle;" transform="matrix(1 0 0 1 559.711 322)">Ultralight</text>
  <text style="stroke:none;fill:black;font-family:-apple-system,&quot;SF Pro Display&quot;,&quot;SF Pro Text&quot;,Helvetica,sans-serif;text-anchor:middle;" transform="matrix(1 0 0 1 856.422 322)">Thin</text>
  <text style="stroke:none;fill:black;font-family:-apple-system,&quot;SF Pro Display&quot;,&quot;SF Pro Text&quot;,Helvetica,sans-serif;text-anchor:middle;" transform="matrix(1 0 0 1 1153.13 322)">Light</text>
  <text style="stroke:none;fill:black;font-family:-apple-system,&quot;SF Pro Display&quot;,&quot;SF Pro Text&quot;,Helvetica,sans-serif;text-anchor:middle;" transform="matrix(1 0 0 1 1449.84 322)">Regular</text>
  <text style="stroke:none;fill:black;font-family:-apple-system,&quot;SF Pro Display&quot;,&quot;SF Pro Text&quot;,Helvetica,sans-serif;text-anchor:middle;" transform="matrix(1 0 0 1 1746.56 322)">Medium</text>
  <text style="stroke:none;fill:black;font-family:-apple-system,&quot;SF Pro Display&quot;,&quot;SF Pro Text&quot;,Helvetica,sans-serif;text-anchor:middle;" transform="matrix(1 0 0 1 2043.27 322)">Semibold</text>
  <text style="stroke:none;fill:black;font-family:-apple-system,&quot;SF Pro Display&quot;,&quot;SF Pro Text&quot;,Helvetica,sans-serif;text-anchor:middle;" transform="matrix(1 0 0 1 2339.98 322)">Bold</text>
  <text style="stroke:none;fill:black;font-family:-apple-system,&quot;SF Pro Display&quot;,&quot;SF Pro Text&quot;,Helvetica,sans-serif;text-anchor:middle;" transform="matrix(1 0 0 1 2636.69 322)">Heavy</text>
  <text style="stroke:none;fill:black;font-family:-apple-system,&quot;SF Pro Display&quot;,&quot;SF Pro Text&quot;,Helvetica,sans-serif;text-anchor:middle;" transform="matrix(1 0 0 1 2933.4 322)">Black</text>
  <line id="" style="fill:none;stroke:black;opacity:1;stroke-width:0.5;" x1="263" x2="3036" y1="1903" y2="1903"/>
  <g id="" transform="matrix(1 0 0 1 263 1933)">
   <path d="M 9.24805 0.830078 C 13.5547 0.830078 17.1387 -2.74414 17.1387 -7.05078 C 17.1387 -11.3574 13.5449 -14.9316 9.23828 -14.9316 C 4.94141 -14.9316 1.36719 -11.3574 1.36719 -7.05078 C 1.36719 -2.74414 4.95117 0.830078 9.24805 0.830078 Z M 9.24805 -0.654297 C 5.70312 -0.654297 2.87109 -3.49609 2.87109 -7.05078 C 2.87109 -10.6055 5.69336 -13.4473 9.23828 -13.4473 C 12.793 -13.4473 15.6348 -10.6055 15.6445 -7.05078 C 15.6543 -3.49609 12.8027 -0.654297 9.24805 -0.654297 Z M 9.22852 -3.42773 C 9.69727 -3.42773 9.9707 -3.74023 9.9707 -4.25781 L 9.9707 -6.31836 L 12.1973 -6.31836 C 12.6953 -6.31836 13.0371 -6.57227 13.0371 -7.04102 C 13.0371 -7.51953 12.7148 -7.7832 12.1973 -7.7832 L 9.9707 -7.7832 L 9.9707 -10.0098 C 9.9707 -10.5273 9.69727 -10.8496 9.22852 -10.8496 C 8.75977 -10.8496 8.50586 -10.5078 8.50586 -10.0098 L 8.50586 -7.7832 L 6.29883 -7.7832 C 5.78125 -7.7832 5.44922 -7.51953 5.44922 -7.04102 C 5.44922 -6.57227 5.80078 -6.31836 6.29883 -6.31836 L 8.50586 -6.31836 L 8.50586 -4.25781 C 8.50586 -3.75977 8.75977 -3.42773 9.22852 -3.42773 Z"/>
  </g>
  <g id="" transform="matrix(1 0 0 1 281.506 1933)">
   <path d="M 11.709 2.91016 C 17.1582 2.91016 21.6699 -1.60156 21.6699 -7.05078 C 21.6699 -12.4902 17.1484 -17.0117 11.6992 -17.0117 C 6.25977 -17.0117 1.74805 -12.4902 1.74805 -7.05078 C 1.74805 -1.60156 6.26953 2.91016 11.709 2.91016 Z M 11.709 1.25 C 7.09961 1.25 3.41797 -2.44141 3.41797 -7.05078 C 3.41797 -11.6504 7.08984 -15.3516 11.6992 -15.3516 C 16.3086 -15.3516 20 -11.6504 20.0098 -7.05078 C 20.0195 -2.44141 16.3184 1.25 11.709 1.25 Z M 11.6895 -2.41211 C 12.207 -2.41211 12.5195 -2.77344 12.5195 -3.33984 L 12.5195 -6.23047 L 15.5762 -6.23047 C 16.123 -6.23047 16.5039 -6.51367 16.5039 -7.03125 C 16.5039 -7.55859 16.1426 -7.86133 15.5762 -7.86133 L 12.5195 -7.86133 L 12.5195 -10.9277 C 12.5195 -11.5039 12.207 -11.8555 11.6895 -11.8555 C 11.1719 -11.8555 10.8789 -11.4844 10.8789 -10.9277 L 10.8789 -7.86133 L 7.83203 -7.86133 C 7.26562 -7.86133 6.89453 -7.55859 6.89453 -7.03125 C 6.89453 -6.51367 7.28516 -6.23047 7.83203 -6.23047 L 10.8789 -6.23047 L 10.8789 -3.33984 C 10.8789 -2.79297 11.1719 -2.41211 11.6895 -2.41211 Z"/>
  </g>
  <g id="" transform="matrix(1 0 0 1 304.924 1933)">
   <path d="M 14.9707 5.67383 C 21.9336 5.67383 27.6953 -0.078125 27.6953 -7.04102 C 27.6953 -14.0039 21.9238 -19.7559 14.9609 -19.7559 C 8.00781 -19.7559 2.25586 -14.0039 2.25586 -7.04102 C 2.25586 -0.078125 8.01758 5.67383 14.9707 5.67383 Z M 14.9707 3.85742 C 8.93555 3.85742 4.08203 -1.00586 4.08203 -7.04102 C 4.08203 -13.0762 8.92578 -17.9395 14.9609 -17.9395 C 21.0059 -17.9395 25.8594 -13.0762 25.8691 -7.04102 C 25.8789 -1.00586 21.0156 3.85742 14.9707 3.85742 Z M 14.9512 -1.06445 C 15.5176 -1.06445 15.8691 -1.45508 15.8691 -2.06055 L 15.8691 -6.13281 L 20.1074 -6.13281 C 20.6934 -6.13281 21.1133 -6.46484 21.1133 -7.02148 C 21.1133 -7.59766 20.7227 -7.93945 20.1074 -7.93945 L 15.8691 -7.93945 L 15.8691 -12.1875 C 15.8691 -12.8027 15.5176 -13.1934 14.9512 -13.1934 C 14.3848 -13.1934 14.0625 -12.7832 14.0625 -12.1875 L 14.0625 -7.93945 L 9.83398 -7.93945 C 9.21875 -7.93945 8.80859 -7.59766 8.80859 -7.02148 C 8.80859 -6.46484 9.23828 -6.13281 9.83398 -6.13281 L 14.0625 -6.13281 L 14.0625 -2.06055 C 14.0625 -1.47461 14.3848 -1.06445 14.9512 -1.06445 Z"/>
  </g>
  <text style="stroke:none;fill:black;font-family:-apple-system,&quot;SF Pro Display&quot;,&quot;SF Pro Text&quot;,Helvetica,sans-serif;font-weight:bold;" transform="matrix(1 0 0 1 263 1953)">Design Variations</text>
  <text style="stroke:none;fill:black;font-family:-apple-system,&quot;SF Pro Display&quot;,&quot;SF Pro Text&quot;,Helvetica,sans-serif;" transform="matrix(1 0 0 1 263 1971)">Symbols are supported in up to nine weights and three scales.</text>
  <text style="stroke:none;fill:black;font-family:-apple-system,&quot;SF Pro Display&quot;,&quot;SF Pro Text&quot;,Helvetica,sans-serif;" transform="matrix(1 0 0 1 263 1989)">For optimal layout with text and other symbols, vertically align</text>
  <text style="stroke:none;fill:black;font-family:-apple-system,&quot;SF Pro Display&quot;,&quot;SF Pro Text&quot;,Helvetica,sans-serif;" transform="matrix(1 0 0 1 263 2007)">symbols with the adjacent text.</text>
  <rect height="14" id="" style="fill:#00AEEF;stroke:none;opacity:0.4;" width="3" x="776" y="1919"/>
  <g id="" transform="matrix(1 0 0 1 779 1933)">
   <path d="M 10.5273 0 L 12.373 0 L 7.17773 -14.0918 L 5.43945 -14.0918 L 0.244141 0 L 2.08984 0 L 3.50586 -4.0332 L 9.11133 -4.0332 Z M 6.2793 -11.9531 L 6.33789 -11.9531 L 8.59375 -5.52734 L 4.02344 -5.52734 Z"/>
  </g>
  <rect height="14" id="" style="fill:#00AEEF;stroke:none;opacity:0.4;" width="3" x="791.617" y="1919"/>
  <text style="stroke:none;fill:black;font-family:-apple-system,&quot;SF Pro Display&quot;,&quot;SF Pro Text&quot;,Helvetica,sans-serif;font-weight:bold;" transform="matrix(1 0 0 1 776 1953)">Margins</text>
  <text style="stroke:none;fill:black;font-family:-apple-system,&quot;SF Pro Display&quot;,&quot;SF Pro Text&quot;,Helvetica,sans-serif;" transform="matrix(1 0 0 1 776 1971)">Leading and trailing margins on the left and right side of each symbol</text>
  <text style="stroke:none;fill:black;font-family:-apple-system,&quot;SF Pro Display&quot;,&quot;SF Pro Text&quot;,Helvetica,sans-serif;" transform="matrix(1 0 0 1 776 1989)">can be adjusted by modifying the width of the blue rectangles.</text>
  <text style="stroke:none;fill:black;font-family:-apple-system,&quot;SF Pro Display&quot;,&quot;SF Pro Text&quot;,Helvetica,sans-serif;" transform="matrix(1 0 0 1 776 2007)">Modifications are automatically applied proportionally to all</text>
  <text style="stroke:none;fill:black;font-family:-apple-system,&quot;SF Pro Display&quot;,&quot;SF Pro Text&quot;,Helvetica,sans-serif;" transform="matrix(1 0 0 1 776 2025)">scales and weights.</text>
  <g id="" transform="matrix(1 0 0 1 1289 1933)">
   <path d="M 2.83203 3.11523 L 4.375 4.6582 C 5.22461 5.48828 6.19141 5.41992 7.06055 4.46289 L 17.2754 -6.66016 C 17.7051 -6.36719 18.0957 -6.37695 18.5645 -6.47461 L 19.6094 -6.68945 L 20.3027 -5.99609 L 20.2539 -5.47852 C 20.1855 -4.95117 20.3516 -4.53125 20.8496 -4.0332 L 21.6602 -3.22266 C 22.168 -2.71484 22.8223 -2.68555 23.3008 -3.16406 L 26.5527 -6.41602 C 27.0312 -6.89453 27.0117 -7.54883 26.5039 -8.05664 L 25.6836 -8.87695 C 25.1855 -9.375 24.7754 -9.55078 24.2383 -9.47266 L 23.7109 -9.41406 L 23.0566 -10.0781 L 23.3398 -11.2207 C 23.4863 -11.7871 23.3398 -12.2559 22.7148 -12.8613 L 20.3027 -15.2539 C 16.7578 -18.7793 12.2266 -18.6719 9.11133 -15.5371 C 8.69141 -15.1074 8.64258 -14.5215 8.91602 -14.0918 C 9.15039 -13.7207 9.62891 -13.4961 10.2734 -13.6621 C 11.7871 -14.043 13.3008 -13.9258 14.7852 -12.9199 L 14.1602 -11.3379 C 13.9258 -10.752 13.9453 -10.2734 14.1797 -9.83398 L 3.01758 0.439453 C 2.08008 1.30859 1.97266 2.25586 2.83203 3.11523 Z M 10.6738 -15.1465 C 13.3398 -17.1387 16.6504 -16.8262 19.0527 -14.4141 L 21.6797 -11.8066 C 21.9141 -11.5723 21.9434 -11.3867 21.8848 -11.0938 L 21.5039 -9.53125 L 23.0762 -7.95898 L 24.043 -8.04688 C 24.3262 -8.07617 24.4141 -8.05664 24.6387 -7.83203 L 25.2637 -7.20703 L 22.5098 -4.46289 L 21.8848 -5.07812 C 21.6602 -5.30273 21.6406 -5.40039 21.6699 -5.68359 L 21.7578 -6.64062 L 20.1953 -8.20312 L 18.5742 -7.89062 C 18.291 -7.83203 18.1445 -7.83203 17.9102 -8.07617 L 15.7324 -10.2539 C 15.5078 -10.4883 15.4785 -10.625 15.6055 -10.9473 L 16.5527 -13.2227 C 14.9512 -14.7559 12.8418 -15.6055 10.8008 -14.9512 C 10.7129 -14.9219 10.6445 -14.9414 10.6152 -14.9805 C 10.5859 -15.0293 10.5859 -15.0781 10.6738 -15.1465 Z M 4.10156 2.41211 C 3.61328 1.91406 3.78906 1.61133 4.12109 1.30859 L 15.0781 -8.80859 L 16.3086 -7.57812 L 6.15234 3.34961 C 5.84961 3.68164 5.46875 3.7793 5.06836 3.37891 Z"/>
  </g>
  <text style="stroke:none;fill:black;font-family:-apple-system,&quot;SF Pro Display&quot;,&quot;SF Pro Text&quot;,Helvetica,sans-serif;font-weight:bold;" transform="matrix(1 0 0 1 1289 1953)">Exporting</text>
  <text style="stroke:none;fill:black;font-family:-apple-system,&quot;SF Pro Display&quot;,&quot;SF Pro Text&quot;,Helvetica,sans-serif;" transform="matrix(1 0 0 1 1289 1971)">Symbols should be outlined when exporting to ensure the</text>
  <text style="stroke:none;fill:black;font-family:-apple-system,&quot;SF Pro Display&quot;,&quot;SF Pro Text&quot;,Helvetica,sans-serif;" transform="matrix(1 0 0 1 1289 1989)">design is preserved when submitting to Xcode.</text>
  <text id="template-version" style="stroke:none;fill:black;font-family:-apple-system,&quot;SF Pro Display&quot;,&quot;SF Pro Text&quot;,Helvetica,sans-serif;text-anchor:end;" transform="matrix(1 0 0 1 3036 1933)">Template v.1.0</text>
  <text style="stroke:none;fill:black;font-family:-apple-system,&quot;SF Pro Display&quot;,&quot;SF Pro Text&quot;,Helvetica,sans-serif;text-anchor:end;" transform="matrix(1 0 0 1 3036 1951)">Generated from rhombus.fill</text>
  <text style="stroke:none;fill:black;font-family:-apple-system,&quot;SF Pro Display&quot;,&quot;SF Pro Text&quot;,Helvetica,sans-serif;text-anchor:end;" transform="matrix(1 0 0 1 3036 1969)">Typeset at 100 points</text>
  <text style="stroke:none;fill:black;font-family:-apple-system,&quot;SF Pro Display&quot;,&quot;SF Pro Text&quot;,Helvetica,sans-serif;" transform="matrix(1 0 0 1 263 726)">Small</text>
  <text style="stroke:none;fill:black;font-family:-apple-system,&quot;SF Pro Display&quot;,&quot;SF Pro Text&quot;,Helvetica,sans-serif;" transform="matrix(1 0 0 1 263 1156)">Medium</text>
  <text style="stroke:none;fill:black;font-family:-apple-system,&quot;SF Pro Display&quot;,&quot;SF Pro Text&quot;,Helvetica,sans-serif;" transform="matrix(1 0 0 1 263 1586)">Large</text>
 </g>
 <g id="Guides">
  <g id="H-reference" style="fill:#27AAE1;stroke:none;" transform="matrix(1 0 0 1 339 696)">
   <path d="M 54.9316 0 L 57.666 0 L 30.5664 -70.459 L 28.0762 -70.459 L 0.976562 0 L 3.66211 0 L 12.9395 -24.4629 L 45.7031 -24.4629 Z M 29.1992 -67.0898 L 29.4434 -67.0898 L 44.8242 -26.709 L 13.8184 -26.709 Z"/>
  </g>
  <line id="Baseline-S" style="fill:none;stroke:#27AAE1;opacity:1;stroke-width:0.577;" x1="263" x2="3036" y1="696" y2="696"/>
  <line id="Capline-S" style="fill:none;stroke:#27AAE1;opacity:1;stroke-width:0.577;" x1="263" x2="3036" y1="625.541" y2="625.541"/>
  <g id="H-reference" style="fill:#27AAE1;stroke:none;" transform="matrix(1 0 0 1 339 1126)">
   <path d="M 54.9316 0 L 57.666 0 L 30.5664 -70.459 L 28.0762 -70.459 L 0.976562 0 L 3.66211 0 L 12.9395 -24.4629 L 45.7031 -24.4629 Z M 29.1992 -67.0898 L 29.4434 -67.0898 L 44.8242 -26.709 L 13.8184 -26.709 Z"/>
  </g>
  <line id="Baseline-M" style="fill:none;stroke:#27AAE1;opacity:1;stroke-width:0.577;" x1="263" x2="3036" y1="1126" y2="1126"/>
  <line id="Capline-M" style="fill:none;stroke:#27AAE1;opacity:1;stroke-width:0.577;" x1="263" x2="3036" y1="1055.54" y2="1055.54"/>
  <g id="H-reference" style="fill:#27AAE1;stroke:none;" transform="matrix(1 0 0 1 339 1556)">
   <path d="M 54.9316 0 L 57.666 0 L 30.5664 -70.459 L 28.0762 -70.459 L 0.976562 0 L 3.66211 0 L 12.9395 -24.4629 L 45.7031 -24.4629 Z M 29.1992 -67.0898 L 29.4434 -67.0898 L 44.8242 -26.709 L 13.8184 -26.709 Z"/>
  </g>
  <line id="Baseline-L" style="fill:none;stroke:#27AAE1;opacity:1;stroke-width:0.577;" x1="263" x2="3036" y1="1556" y2="1556"/>
  <line id="Capline-L" style="fill:none;stroke:#27AAE1;opacity:1;stroke-width:0.577;" x1="263" x2="3036" y1="1485.54" y2="1485.54"/>
  <rect height="119.336" id="left-margin" style="fill:#00AEEF;stroke:none;opacity:0.4;" width="9.96094" x="1401.87" y="1030.79"/>
  <rect height="119.336" id="right-margin" style="fill:#00AEEF;stroke:none;opacity:0.4;" width="9.96094" x="1487.86" y="1030.79"/>
 </g>
 <g id="Symbols">
  <g id="Black-L" transform="matrix(1 0 0 1 2866.94 1556)">
   <path d="M 66.4551 33.2031 C 72.3633 33.2031 75.4883 29.1992 79.834 23.3887 L 116.113 -24.9512 C 118.994 -28.7109 120.02 -32.0312 120.02 -35.2539 C 120.02 -38.5254 118.994 -41.7969 116.113 -45.6055 L 79.834 -93.8965 C 75.4883 -99.707 72.3633 -103.76 66.4551 -103.76 C 60.5469 -103.76 57.373 -99.707 53.0273 -93.8965 L 16.748 -45.6055 C 13.916 -41.7969 12.8906 -38.5254 12.8906 -35.2539 C 12.8906 -32.0312 13.916 -28.7109 16.748 -24.9512 L 53.0273 23.3887 C 57.373 29.1992 60.5469 33.2031 66.4551 33.2031 Z"/>
  </g>
  <g id="Heavy-L" transform="matrix(1 0 0 1 2571.55 1556)">
   <path d="M 65.1367 32.0312 C 70.4102 32.0312 73.1934 28.4668 77.1973 22.998 L 113.867 -25.8301 C 116.406 -29.248 117.383 -32.2754 117.383 -35.2539 C 117.383 -38.2812 116.406 -41.3086 113.867 -44.6777 L 77.1973 -93.5547 C 73.1934 -98.9746 70.4102 -102.588 65.1367 -102.588 C 59.8633 -102.588 57.1289 -98.9746 53.0762 -93.5547 L 16.4062 -44.6777 C 13.8672 -41.3086 12.8906 -38.2812 12.8906 -35.2539 C 12.8906 -32.2754 13.8672 -29.248 16.4062 -25.8301 L 53.0762 22.998 C 57.1289 28.4668 59.8633 32.0312 65.1367 32.0312 Z"/>
  </g>
  <g id="Bold-L" transform="matrix(1 0 0 1 2276.31 1556)">
   <path d="M 63.6719 30.7129 C 68.2129 30.7129 70.5566 27.6367 74.2676 22.6074 L 111.328 -26.8555 C 113.525 -29.834 114.453 -32.5195 114.453 -35.2539 C 114.453 -38.0371 113.525 -40.7227 111.328 -43.7012 L 74.2676 -93.1641 C 70.5566 -98.1445 68.2129 -101.221 63.6719 -101.221 C 59.1309 -101.221 56.7871 -98.1445 53.0762 -93.1641 L 16.0645 -43.7012 C 13.8184 -40.7227 12.8906 -38.0371 12.8906 -35.2539 C 12.8906 -32.5195 13.8184 -29.834 16.0645 -26.8555 L 53.0762 22.6074 C 56.7871 27.6367 59.1309 30.7129 63.6719 30.7129 Z"/>
  </g>
  <g id="Semibold-L" transform="matrix(1 0 0 1 1980.6 1556)">
   <path d="M 62.6465 29.7852 C 66.6992 29.7852 68.75 27.0508 72.2656 22.3633 L 109.57 -27.5391 C 111.572 -30.2246 112.451 -32.666 112.451 -35.2539 C 112.451 -37.8418 111.572 -40.332 109.57 -42.9688 L 72.2656 -92.8711 C 68.75 -97.5586 66.6992 -100.342 62.6465 -100.342 C 58.6426 -100.342 56.5918 -97.5586 53.0762 -92.8711 L 15.7715 -42.9688 C 13.7695 -40.332 12.8906 -37.8418 12.8906 -35.2539 C 12.8906 -32.666 13.7695 -30.2246 15.7715 -27.5391 L 53.0762 22.3633 C 56.5918 27.0508 58.6426 29.7852 62.6465 29.7852 Z"/>
  </g>
  <g id="Medium-L" transform="matrix(1 0 0 1 1684.64 1556)">
   <path d="M 61.9141 29.1016 C 65.5273 29.1016 67.3828 26.6113 70.7031 22.1191 L 108.203 -28.0762 C 110.059 -30.5176 110.938 -32.8125 110.938 -35.2539 C 110.938 -37.6953 110.059 -39.9902 108.203 -42.4316 L 70.7031 -92.6758 C 67.3828 -97.1191 65.5273 -99.6094 61.9141 -99.6094 C 58.252 -99.6094 56.3965 -97.1191 53.0762 -92.6758 L 15.5762 -42.4316 C 13.7695 -39.9902 12.8906 -37.6953 12.8906 -35.2539 C 12.8906 -32.8125 13.7695 -30.5176 15.5762 -28.0762 L 53.0762 22.1191 C 56.3965 26.6113 58.252 29.1016 61.9141 29.1016 Z"/>
  </g>
  <g id="Regular-L" transform="matrix(1 0 0 1 1388.93 1556)">
   <path d="M 60.8887 28.1738 C 64.0625 28.1738 65.625 26.0254 68.7012 21.875 L 106.494 -28.8086 C 108.057 -30.9082 108.936 -33.0078 108.936 -35.2539 C 108.936 -37.5488 108.057 -39.5996 106.494 -41.748 L 68.7012 -92.4316 C 65.625 -96.582 64.0625 -98.7305 60.8887 -98.7305 C 57.7637 -98.7305 56.2012 -96.582 53.0762 -92.4316 L 15.332 -41.748 C 13.7207 -39.5996 12.8906 -37.5488 12.8906 -35.2539 C 12.8906 -33.0078 13.7207 -30.9082 15.332 -28.8086 L 53.0762 21.875 C 56.2012 26.0254 57.7637 28.1738 60.8887 28.1738 Z"/>
  </g>
  <g id="Light-L" transform="matrix(1 0 0 1 1093.61 1556)">
   <path d="M 59.5215 26.709 C 62.2559 26.709 63.5742 24.8535 66.1133 21.4844 L 104.102 -29.7852 C 105.469 -31.6406 106.152 -33.3496 106.152 -35.2539 C 106.152 -37.1582 105.469 -38.8672 104.102 -40.7715 L 66.1133 -91.9922 C 63.5742 -95.4102 62.2559 -97.2656 59.5215 -97.2656 C 56.7871 -97.2656 55.4688 -95.4102 52.9297 -91.9922 L 14.9414 -40.7715 C 13.5742 -38.8672 12.8906 -37.1582 12.8906 -35.2539 C 12.8906 -33.3496 13.5742 -31.6406 14.9414 -29.7852 L 52.9297 21.4844 C 55.4688 24.8535 56.7871 26.709 59.5215 26.709 Z"/>
  </g>
  <g id="Thin-L" transform="matrix(1 0 0 1 798.732 1556)">
   <path d="M 57.666 24.8047 C 59.8633 24.8047 60.8887 23.291 62.6465 20.9473 L 100.928 -31.0547 C 102.002 -32.6172 102.49 -33.8379 102.49 -35.2539 C 102.49 -36.6699 102.002 -37.9395 100.928 -39.4531 L 62.6465 -91.4551 C 60.8887 -93.8477 59.8633 -95.3613 57.666 -95.3613 C 55.5176 -95.3613 54.4922 -93.8477 52.7344 -91.4551 L 14.4531 -39.4531 C 13.3301 -37.9395 12.8906 -36.6699 12.8906 -35.2539 C 12.8906 -33.8379 13.3301 -32.6172 14.4531 -31.0547 L 52.7344 20.9473 C 54.4922 23.291 55.5176 24.8047 57.666 24.8047 Z"/>
  </g>
  <g id="Ultralight-L" transform="matrix(1 0 0 1 502.973 1556)">
   <path d="M 56.7383 23.8281 C 58.6426 23.8281 59.5215 22.5098 60.8398 20.6543 L 99.2676 -31.7383 C 100.244 -33.1055 100.586 -34.082 100.586 -35.2539 C 100.586 -36.4258 100.244 -37.4512 99.2676 -38.8184 L 60.8398 -91.2109 C 59.5215 -93.0176 58.6426 -94.3848 56.7383 -94.3848 C 54.8828 -94.3848 54.0039 -93.0176 52.6367 -91.2109 L 14.209 -38.8184 C 13.2324 -37.4512 12.8906 -36.4258 12.8906 -35.2539 C 12.8906 -34.082 13.2324 -33.1055 14.209 -31.7383 L 52.6367 20.6543 C 54.0039 22.5098 54.8828 23.8281 56.7383 23.8281 Z"/>
  </g>
  <g id="Black-M" transform="matrix(1 0 0 1 2880.91 1126)">
   <path d="M 52.4902 18.6523 C 57.7148 18.6523 60.5469 15.0879 63.9648 10.4492 L 91.748 -26.5625 C 94.2871 -29.8828 95.0195 -32.6172 95.0195 -35.2539 C 95.0195 -37.8906 94.2871 -40.625 91.748 -43.9941 L 63.9648 -80.957 C 60.5469 -85.5957 57.7148 -89.1602 52.4902 -89.1602 C 47.2656 -89.1602 44.4336 -85.5957 40.9668 -80.957 L 13.2324 -43.9941 C 10.6934 -40.625 9.96094 -37.8906 9.96094 -35.2539 C 9.96094 -32.6172 10.6934 -29.8828 13.2324 -26.5625 L 40.9668 10.4492 C 44.4336 15.0879 47.2656 18.6523 52.4902 18.6523 Z"/>
  </g>
  <g id="Heavy-M" transform="matrix(1 0 0 1 2585.27 1126)">
   <path d="M 51.416 17.7246 C 56.0547 17.7246 58.5449 14.5508 61.8164 10.1562 L 89.8926 -27.2949 C 92.1387 -30.2734 92.8711 -32.8125 92.8711 -35.2539 C 92.8711 -37.7441 92.1387 -40.2832 89.8926 -43.2617 L 61.8164 -80.6641 C 58.5449 -85.0586 56.0547 -88.2324 51.416 -88.2324 C 46.7773 -88.2324 44.3359 -85.0586 41.0645 -80.6641 L 12.9395 -43.2617 C 10.6934 -40.2832 9.96094 -37.7441 9.96094 -35.2539 C 9.96094 -32.8125 10.6934 -30.2734 12.9395 -27.2949 L 41.0645 10.1562 C 44.3359 14.5508 46.7773 17.7246 51.416 17.7246 Z"/>
  </g>
  <g id="Bold-M" transform="matrix(1 0 0 1 2289.76 1126)">
   <path d="M 50.2441 16.6992 C 54.1992 16.6992 56.25 14.0137 59.375 9.86328 L 87.793 -28.125 C 89.7461 -30.6641 90.4785 -32.959 90.4785 -35.2539 C 90.4785 -37.5488 89.7461 -39.8438 87.793 -42.4316 L 59.375 -80.3711 C 56.25 -84.5215 54.1992 -87.207 50.2441 -87.207 C 46.2891 -87.207 44.1895 -84.5215 41.1133 -80.3711 L 12.6465 -42.4316 C 10.6934 -39.8438 9.96094 -37.5488 9.96094 -35.2539 C 9.96094 -32.959 10.6934 -30.6641 12.6465 -28.125 L 41.1133 9.86328 C 44.1895 14.0137 46.2891 16.6992 50.2441 16.6992 Z"/>
  </g>
  <g id="Semibold-M" transform="matrix(1 0 0 1 1993.88 1126)">
   <path d="M 49.4141 15.9668 C 52.8809 15.9668 54.6875 13.623 57.666 9.61914 L 86.377 -28.6621 C 88.0859 -30.957 88.8184 -33.0566 88.8184 -35.2539 C 88.8184 -37.4512 88.0859 -39.5508 86.377 -41.8457 L 57.666 -80.1758 C 54.6875 -84.1309 52.8809 -86.4746 49.4141 -86.4746 C 45.8984 -86.4746 44.0918 -84.1309 41.1133 -80.1758 L 12.4512 -41.8457 C 10.6934 -39.5508 9.96094 -37.4512 9.96094 -35.2539 C 9.96094 -33.0566 10.6934 -30.957 12.4512 -28.6621 L 41.1133 9.61914 C 44.0918 13.623 45.8984 15.9668 49.4141 15.9668 Z"/>
  </g>
  <g id="Medium-M" transform="matrix(1 0 0 1 1697.78 1126)">
   <path d="M 48.7793 15.4297 C 51.9043 15.4297 53.5156 13.3301 56.3965 9.47266 L 85.3027 -29.1016 C 86.8652 -31.2012 87.5977 -33.1543 87.5977 -35.2539 C 87.5977 -37.3535 86.8652 -39.3066 85.3027 -41.4062 L 56.3965 -79.9805 C 53.5156 -83.8379 51.9043 -85.9375 48.7793 -85.9375 C 45.6543 -85.9375 44.043 -83.8379 41.1621 -79.9805 L 12.2559 -41.4062 C 10.6934 -39.3066 9.96094 -37.3535 9.96094 -35.2539 C 9.96094 -33.1543 10.6934 -31.2012 12.2559 -29.1016 L 41.1621 9.47266 C 44.043 13.3301 45.6543 15.4297 48.7793 15.4297 Z"/>
  </g>
  <g id="Regular-M" transform="matrix(1 0 0 1 1401.87 1126)">
   <path d="M 47.9492 14.7461 C 50.6348 14.7461 51.9531 12.9395 54.7363 9.22852 L 83.8867 -29.6875 C 85.2051 -31.4941 85.9863 -33.3008 85.9863 -35.2539 C 85.9863 -37.2559 85.2051 -39.0137 83.8867 -40.8203 L 54.7363 -79.7852 C 51.9531 -83.4473 50.6348 -85.2539 47.9492 -85.2539 C 45.2637 -85.2539 43.9453 -83.4473 41.2109 -79.7852 L 12.0605 -40.8203 C 10.6934 -39.0137 9.96094 -37.2559 9.96094 -35.2539 C 9.96094 -33.3008 10.6934 -31.4941 12.0605 -29.6875 L 41.2109 9.22852 C 43.9453 12.9395 45.2637 14.7461 47.9492 14.7461 Z"/>
  </g>
  <g id="Light-M" transform="matrix(1 0 0 1 1106.4 1126)">
   <path d="M 46.7285 13.4277 C 49.0234 13.4277 50.1465 11.8652 52.3926 8.88672 L 81.6895 -30.5664 C 82.8613 -32.1289 83.4961 -33.6426 83.4961 -35.2539 C 83.4961 -36.9141 82.8613 -38.3789 81.6895 -39.9414 L 52.3926 -79.3945 C 50.1465 -82.373 49.0234 -83.9355 46.7285 -83.9355 C 44.4336 -83.9355 43.2617 -82.373 41.0645 -79.3945 L 11.7188 -39.9414 C 10.5469 -38.3789 9.96094 -36.9141 9.96094 -35.2539 C 9.96094 -33.6426 10.5469 -32.1289 11.7188 -30.5664 L 41.0645 8.88672 C 43.2617 11.8652 44.4336 13.4277 46.7285 13.4277 Z"/>
  </g>
  <g id="Thin-M" transform="matrix(1 0 0 1 811.354 1126)">
   <path d="M 45.0684 11.7188 C 46.875 11.7188 47.7539 10.4492 49.2676 8.39844 L 78.8574 -31.7383 C 79.7852 -33.0078 80.1758 -34.0332 80.1758 -35.2539 C 80.1758 -36.4746 79.7852 -37.5488 78.8574 -38.8184 L 49.2676 -78.9062 C 47.7539 -80.957 46.875 -82.2266 45.0684 -82.2266 C 43.2617 -82.2266 42.4316 -80.957 40.918 -78.9062 L 11.2793 -38.8184 C 10.3516 -37.5488 9.96094 -36.4746 9.96094 -35.2539 C 9.96094 -34.0332 10.3516 -33.0078 11.2793 -31.7383 L 40.918 8.39844 C 42.4316 10.4492 43.2617 11.7188 45.0684 11.7188 Z"/>
  </g>
  <g id="Ultralight-M" transform="matrix(1 0 0 1 515.473 1126)">
   <path d="M 44.2383 10.8398 C 45.752 10.8398 46.4844 9.76562 47.6562 8.1543 L 77.3926 -32.3242 C 78.2227 -33.4473 78.5156 -34.2773 78.5156 -35.2539 C 78.5156 -36.2305 78.2227 -37.1094 77.3926 -38.1836 L 47.6562 -78.6621 C 46.4844 -80.2734 45.752 -81.3477 44.2383 -81.3477 C 42.6758 -81.3477 41.9434 -80.2734 40.8203 -78.6621 L 11.084 -38.1836 C 10.2539 -37.1094 9.96094 -36.2305 9.96094 -35.2539 C 9.96094 -34.2773 10.2539 -33.4473 11.084 -32.3242 L 40.8203 8.1543 C 41.9434 9.76562 42.6758 10.8398 44.2383 10.8398 Z"/>
  </g>
  <g id="Black-S" transform="matrix(1 0 0 1 2892.34 696)">
   <path d="M 41.0645 6.93359 C 45.1172 6.93359 47.3145 4.15039 50 0.537109 L 71.7773 -28.4668 C 73.7305 -31.0547 74.3164 -33.2031 74.3164 -35.2539 C 74.3164 -37.3047 73.7305 -39.4531 71.7773 -42.041 L 50 -71.0449 C 47.3145 -74.6582 45.1172 -77.4414 41.0645 -77.4414 C 37.0117 -77.4414 34.8145 -74.6582 32.1289 -71.0449 L 10.3516 -42.041 C 8.39844 -39.4531 7.8125 -37.3047 7.8125 -35.2539 C 7.8125 -33.2031 8.39844 -31.0547 10.3516 -28.4668 L 32.1289 0.537109 C 34.8145 4.15039 37.0117 6.93359 41.0645 6.93359 Z"/>
  </g>
  <g id="Heavy-S" transform="matrix(1 0 0 1 2596.31 696)">
   <path d="M 40.3809 6.34766 C 44.043 6.34766 45.9473 3.85742 48.584 0.341797 L 70.6055 -28.9551 C 72.3633 -31.25 72.9492 -33.3008 72.9492 -35.2539 C 72.9492 -37.207 72.3633 -39.2578 70.6055 -41.5527 L 48.584 -70.8496 C 45.9473 -74.3652 44.043 -76.8555 40.3809 -76.8555 C 36.7676 -76.8555 34.8145 -74.3652 32.1777 -70.8496 L 10.1562 -41.5527 C 8.39844 -39.2578 7.8125 -37.207 7.8125 -35.2539 C 7.8125 -33.3008 8.39844 -31.25 10.1562 -28.9551 L 32.1777 0.341797 C 34.8145 3.85742 36.7676 6.34766 40.3809 6.34766 Z"/>
  </g>
  <g id="Bold-S" transform="matrix(1 0 0 1 2300.35 696)">
   <path d="M 39.6484 5.71289 C 42.7734 5.71289 44.4824 3.56445 47.0215 0.146484 L 69.2871 -29.4434 C 70.8008 -31.543 71.4355 -33.3984 71.4355 -35.2539 C 71.4355 -37.1094 70.8008 -38.9648 69.2871 -41.0645 L 47.0215 -70.6543 C 44.4824 -74.0723 42.7734 -76.2207 39.6484 -76.2207 C 36.4746 -76.2207 34.7656 -74.0723 32.2266 -70.6543 L 9.96094 -41.0645 C 8.44727 -38.9648 7.8125 -37.1094 7.8125 -35.2539 C 7.8125 -33.3984 8.44727 -31.543 9.96094 -29.4434 L 32.2266 0.146484 C 34.7656 3.56445 36.4746 5.71289 39.6484 5.71289 Z"/>
  </g>
  <g id="Semibold-S" transform="matrix(1 0 0 1 2004.16 696)">
   <path d="M 39.1113 5.32227 C 41.9434 5.32227 43.4082 3.36914 45.8984 0.0488281 L 68.3594 -29.834 C 69.7754 -31.6895 70.4102 -33.4473 70.4102 -35.2539 C 70.4102 -37.0605 69.7754 -38.8184 68.3594 -40.6738 L 45.8984 -70.5566 C 43.4082 -73.877 41.9434 -75.8301 39.1113 -75.8301 C 36.2305 -75.8301 34.7656 -73.877 32.2754 -70.5566 L 9.86328 -40.6738 C 8.44727 -38.8184 7.8125 -37.0605 7.8125 -35.2539 C 7.8125 -33.4473 8.44727 -31.6895 9.86328 -29.834 L 32.2754 0.0488281 C 34.7656 3.36914 36.2305 5.32227 39.1113 5.32227 Z"/>
  </g>
  <g id="Medium-S" transform="matrix(1 0 0 1 1707.86 696)">
   <path d="M 38.7207 4.98047 C 41.3086 4.98047 42.627 3.22266 45.1172 -0.0488281 L 67.6758 -30.0781 C 68.9453 -31.8359 69.5801 -33.4961 69.5801 -35.2539 C 69.5801 -37.0117 68.9453 -38.6719 67.6758 -40.4297 L 45.1172 -70.459 C 42.627 -73.7305 41.3086 -75.4883 38.7207 -75.4883 C 36.084 -75.4883 34.7656 -73.7305 32.3242 -70.459 L 9.76562 -40.4297 C 8.44727 -38.6719 7.8125 -37.0117 7.8125 -35.2539 C 7.8125 -33.4961 8.44727 -31.8359 9.76562 -30.0781 L 32.3242 -0.0488281 C 34.7656 3.22266 36.084 4.98047 38.7207 4.98047 Z"/>
  </g>
  <g id="Regular-S" transform="matrix(1 0 0 1 1411.66 696)">
   <path d="M 38.1836 4.54102 C 40.4785 4.54102 41.6016 3.02734 44.043 -0.195312 L 66.748 -30.4688 C 67.9199 -31.9824 68.5547 -33.5449 68.5547 -35.2539 C 68.5547 -36.9629 67.9199 -38.5254 66.748 -40.0391 L 44.043 -70.3125 C 41.6016 -73.5352 40.4785 -75.0488 38.1836 -75.0488 C 35.8887 -75.0488 34.7656 -73.5352 32.373 -70.3125 L 9.61914 -40.0391 C 8.49609 -38.5254 7.8125 -36.9629 7.8125 -35.2539 C 7.8125 -33.5449 8.49609 -31.9824 9.61914 -30.4688 L 32.373 -0.195312 C 34.7656 3.02734 35.8887 4.54102 38.1836 4.54102 Z"/>
  </g>
  <g id="Light-S" transform="matrix(1 0 0 1 1116.05 696)">
   <path d="M 37.1094 3.36914 C 39.0137 3.36914 39.9902 2.05078 41.9434 -0.537109 L 64.8438 -31.25 C 65.8203 -32.5684 66.3574 -33.8379 66.3574 -35.2539 C 66.3574 -36.6699 65.8203 -37.9395 64.8438 -39.2578 L 41.9434 -69.9707 C 39.9902 -72.5586 39.0137 -73.877 37.1094 -73.877 C 35.1562 -73.877 34.1797 -72.5586 32.2266 -69.9707 L 9.32617 -39.2578 C 8.34961 -37.9395 7.8125 -36.6699 7.8125 -35.2539 C 7.8125 -33.8379 8.34961 -32.5684 9.32617 -31.25 L 32.2266 -0.537109 C 34.1797 2.05078 35.1562 3.36914 37.1094 3.36914 Z"/>
  </g>
  <g id="Thin-S" transform="matrix(1 0 0 1 820.778 696)">
   <path d="M 35.6445 1.9043 C 37.1582 1.9043 37.8906 0.830078 39.209 -0.927734 L 62.3535 -32.2754 C 63.0859 -33.3008 63.4766 -34.2285 63.4766 -35.2539 C 63.4766 -36.2793 63.0859 -37.207 62.3535 -38.2324 L 39.209 -69.5801 C 37.8906 -71.3379 37.1582 -72.4121 35.6445 -72.4121 C 34.1309 -72.4121 33.3984 -71.3379 32.0801 -69.5801 L 8.93555 -38.2324 C 8.1543 -37.207 7.8125 -36.2793 7.8125 -35.2539 C 7.8125 -34.2285 8.1543 -33.3008 8.93555 -32.2754 L 32.0801 -0.927734 C 33.3984 0.830078 34.1309 1.9043 35.6445 1.9043 Z"/>
  </g>
  <g id="Ultralight-S" transform="matrix(1 0 0 1 524.823 696)">
   <path d="M 34.9121 1.12305 C 36.1816 1.12305 36.7676 0.195312 37.793 -1.17188 L 61.0352 -32.8125 C 61.7188 -33.6914 61.9629 -34.4238 61.9629 -35.2539 C 61.9629 -36.084 61.7188 -36.8164 61.0352 -37.6953 L 37.793 -69.3359 C 36.7676 -70.7031 36.1816 -71.6309 34.9121 -71.6309 C 33.5938 -71.6309 33.0078 -70.7031 31.9824 -69.3359 L 8.74023 -37.6953 C 8.05664 -36.8164 7.8125 -36.084 7.8125 -35.2539 C 7.8125 -34.4238 8.05664 -33.6914 8.74023 -32.8125 L 31.9824 -1.17188 C 33.0078 0.195312 33.5938 1.12305 34.9121 1.12305 Z"/>
  </g>
 </g>
</svg>
